<svg xmlns="http://www.w3.org/2000/svg" width="176" height="175" viewBox="0 0 176 175">
  <g id="Сгруппировать_4" data-name="Сгруппировать 4" transform="translate(-579 -53)">
    <g id="Сгруппировать_3" data-name="Сгруппировать 3">
      <rect id="Прямоугольник_2" data-name="Прямоугольник 2" width="40" height="40" transform="translate(581 55)" fill="#e0e0e0"/>
      <rect id="Прямоугольник_5" data-name="Прямоугольник 5" width="40" height="40" transform="translate(669 99)" fill="#4e4e4e"/>
      <rect id="Прямоугольник_14" data-name="Прямоугольник 14" width="40" height="40" transform="translate(713 99)" fill="#1a1a1a"/>
      <rect id="Прямоугольник_8" data-name="Прямоугольник 8" width="40" height="40" transform="translate(625 143)" fill="#a0a0a0"/>
      <rect id="Прямоугольник_18" data-name="Прямоугольник 18" width="40" height="40" transform="translate(625 187)" fill="#a0a0a0"/>
      <rect id="Прямоугольник_3" data-name="Прямоугольник 3" width="40" height="40" transform="translate(625 55)" fill="#a0a0a0"/>
      <rect id="Прямоугольник_11" data-name="Прямоугольник 11" width="40" height="40" transform="translate(581 99)" fill="#e0e0e0"/>
      <rect id="Прямоугольник_9" data-name="Прямоугольник 9" width="40" height="40" transform="translate(669 143)" fill="#4e4e4e"/>
      <rect id="Прямоугольник_17" data-name="Прямоугольник 17" width="40" height="40" transform="translate(669 187)" fill="#4e4e4e"/>
      <rect id="Прямоугольник_15" data-name="Прямоугольник 15" width="40" height="40" transform="translate(713 143)" fill="#1a1a1a"/>
      <rect id="Прямоугольник_16" data-name="Прямоугольник 16" width="40" height="40" transform="translate(713 187)" fill="#1a1a1a"/>
      <rect id="Прямоугольник_4" data-name="Прямоугольник 4" width="40" height="40" transform="translate(669 55)" fill="#4e4e4e"/>
      <rect id="Прямоугольник_13" data-name="Прямоугольник 13" width="40" height="40" transform="translate(713 55)" fill="#1a1a1a"/>
      <rect id="Прямоугольник_7" data-name="Прямоугольник 7" width="40" height="40" transform="translate(625 99)" fill="#a0a0a0"/>
      <rect id="Прямоугольник_10" data-name="Прямоугольник 10" width="40" height="40" transform="translate(581 143)" fill="#e0e0e0"/>
      <rect id="Прямоугольник_19" data-name="Прямоугольник 19" width="40" height="40" transform="translate(581 187)" fill="#e0e0e0"/>
      <g id="Прямоугольник_12" data-name="Прямоугольник 12" transform="translate(579 53)" fill="none" stroke="#fff" stroke-width="2">
        <rect width="176" height="175" stroke="none"/>
        <rect x="1" y="1" width="174" height="173" fill="none"/>
      </g>
    </g>
  </g>
</svg>
